<?xml version="1.0" encoding="UTF-8"?>
<svg width="690px" height="709px" viewBox="0 0 690 709" version="1.1" xmlns="http://www.w3.org/2000/svg" xmlns:xlink="http://www.w3.org/1999/xlink">
    <!-- Generator: Sketch 57 (83077) - https://sketch.com -->
    <title>Elements</title>
    <desc>Created with Sketch.</desc>
    <g id="Rails-Girls-App" stroke="none" stroke-width="1" fill="none" fill-rule="evenodd">
        <g id="Home/768" transform="translate(-39.000000, -98.000000)">
            <g id="Elements" transform="translate(39.000000, 98.000000)">
                <path d="M2.38594561,25.6985265 C-0.764361766,22.5943341 -0.798456001,17.533225 2.30411944,14.3833325 C5.40669488,11.2361684 10.4730983,11.2020639 13.6165868,14.3035279 C16.7600753,17.404992 16.8009884,22.4715579 13.698413,25.6159936 C12.1437158,27.1950324 10.0912429,27.9896674 8.04558872,28 C5.99993458,28.0101301 3.95428044,27.2448249 2.38594561,25.6985265 Z" id="Path" fill="#F7C500"></path>
                <path d="M398.385946,672.698526 C395.235638,669.594334 395.201544,664.533225 398.304119,661.383332 C401.406695,658.236168 406.473098,658.202064 409.616587,661.303528 C412.760075,664.404992 412.800988,669.471558 409.698413,672.615994 C408.143716,674.195032 406.091243,674.989667 404.045589,675 C401.999935,675.01013 399.95428,674.244825 398.385946,672.698526 Z" id="Path" fill="#67E0C4"></path>
                <path d="M679.789459,10.2738949 C677.426729,7.94575057 677.401158,4.14991871 679.72809,1.78749937 C682.055021,-0.572873695 685.854824,-0.598452077 688.21244,1.72764596 C690.570057,4.053744 690.600741,7.85366839 688.27381,10.2119952 C687.107787,11.3962743 685.568432,11.9922506 684.034192,12 C682.499951,12.0075976 680.96571,11.4336187 679.789459,10.2738949 Z" id="Path" fill="#67E0C4"></path>
                <path d="M9.1929728,707.849263 C7.61781912,706.297167 7.600772,703.766612 9.15205972,702.191666 C10.7033474,700.618084 13.2365491,700.601032 14.8082934,702.151764 C16.3800377,703.702496 16.4004942,706.235779 14.8492065,707.807997 C14.0718579,708.597516 13.0456214,708.994834 12.0227944,709 C10.9999673,709.005065 9.97714022,708.622412 9.1929728,707.849263 Z" id="Path" fill="#F7C500"></path>
                <path d="M658.000243,471.05293 C657.966129,466.636737 661.527641,463.028201 665.942006,463.000234 C670.363194,462.966809 673.972466,466.524866 673.999757,470.943787 C674.033871,475.36339 670.472359,478.969197 666.051171,479 L666.037526,479 C661.629984,479.022404 658.027534,475.467076 658.000243,471.05293 Z" id="Path" fill="#F7C500"></path>
            </g>
        </g>
    </g>
</svg>