<?xml version="1.0" encoding="UTF-8"?>
<svg width="343px" height="739px" viewBox="0 0 343 739" version="1.1" xmlns="http://www.w3.org/2000/svg" xmlns:xlink="http://www.w3.org/1999/xlink">
    <!-- Generator: Sketch 57 (83077) - https://sketch.com -->
    <title>Elements</title>
    <desc>Created with Sketch.</desc>
    <g id="Rails-Girls-App" stroke="none" stroke-width="1" fill="none" fill-rule="evenodd">
        <g id="Home/375" transform="translate(-16.000000, -88.000000)">
            <g id="Elements" transform="translate(16.000000, 88.000000)">
                <path d="M2.38594561,25.6985265 C-0.764361766,22.5943341 -0.798456001,17.533225 2.30411944,14.3833325 C5.40669488,11.2361684 10.4730983,11.2020639 13.6165868,14.3035279 C16.7600753,17.404992 16.8009884,22.4715579 13.698413,25.6159936 C12.1437158,27.1950324 10.0912429,27.9896674 8.04558872,28 C5.99993458,28.0101301 3.95428044,27.2448249 2.38594561,25.6985265 Z" id="Path" fill="#F7C500"></path>
                <path d="M258.385946,702.698526 C255.235638,699.594334 255.201544,694.533225 258.304119,691.383332 C261.406695,688.236168 266.473098,688.202064 269.616587,691.303528 C272.760075,694.404992 272.800988,699.471558 269.698413,702.615994 C268.143716,704.195032 266.091243,704.989667 264.045589,705 C261.999935,705.01013 259.95428,704.244825 258.385946,702.698526 Z" id="Path" fill="#67E0C4"></path>
                <path d="M332.789459,10.2738949 C330.426729,7.94575057 330.401158,4.14991871 332.72809,1.78749937 C335.055021,-0.572873695 338.854824,-0.598452077 341.21244,1.72764596 C343.570057,4.053744 343.600741,7.85366839 341.27381,10.2119952 C340.107787,11.3962743 338.568432,11.9922506 337.034192,12 C335.499951,12.0075976 333.96571,11.4336187 332.789459,10.2738949 Z" id="Path" fill="#67E0C4"></path>
                <path d="M9.1929728,737.849263 C7.61781912,736.297167 7.600772,733.766612 9.15205972,732.191666 C10.7033474,730.618084 13.2365491,730.601032 14.8082934,732.151764 C16.3800377,733.702496 16.4004942,736.235779 14.8492065,737.807997 C14.0718579,738.597516 13.0456214,738.994834 12.0227944,739 C10.9999673,739.005065 9.97714022,738.622412 9.1929728,737.849263 Z" id="Path" fill="#F7C500"></path>
                <path d="M311.000243,471.05293 C310.966129,466.636737 314.527641,463.028201 318.942006,463.000234 C323.363194,462.966809 326.972466,466.524866 326.999757,470.943787 C327.033871,475.36339 323.472359,478.969197 319.051171,479 L319.037526,479 C314.629984,479.022404 311.027534,475.467076 311.000243,471.05293 Z" id="Path" fill="#F7C500"></path>
            </g>
        </g>
    </g>
</svg>