<?xml version="1.0" encoding="UTF-8"?>
<svg width="154px" height="32px" viewBox="0 0 154 32" version="1.1" xmlns="http://www.w3.org/2000/svg" xmlns:xlink="http://www.w3.org/1999/xlink">
    <!-- Generator: Sketch 57 (83077) - https://sketch.com -->
    <title>Elements / Logo</title>
    <desc>Created with Sketch.</desc>
    <defs>
        <path d="M23.8359617,12.5776514 C26.2348731,16.8234794 24.8061716,22.2720992 20.6513797,24.7233686 L13.7239866,28.8106273 C12.357433,29.6168931 10.8632757,30 9.38826388,30 C6.3787988,30 3.44832177,28.4054969 1.83858924,25.5561651 C1.38180169,24.7478506 1.65284701,23.7140766 2.44393046,23.2473828 C3.23501392,22.7804841 4.24642193,23.0575707 4.70330971,23.8659877 C6.19004941,26.4976451 9.49481757,27.4026583 12.0701491,25.8831376 L18.9974419,21.7959813 C21.5725729,20.2765631 22.4580812,16.8993838 20.9713415,14.2678288 C19.4846018,11.6362738 16.1797334,10.7311582 13.6046024,12.2506789 L9.97596311,14.3914678 C9.18477942,14.8581617 8.17327117,14.5812799 7.71658386,13.7728629 C7.25989656,12.9644459 7.53094188,11.9307744 8.32202533,11.4640806 L11.9506646,9.32308677 C16.105657,6.87181736 21.4372507,8.33182333 23.8359617,12.5776514 Z M23.1668875,4.47039697 C23.6235748,5.283511 23.3525294,6.32342315 22.5615462,6.79288805 C21.7704628,7.26235295 20.7588543,6.98372409 20.3022672,6.17061006 C18.8154273,3.52322372 15.5104587,2.61283689 12.9354279,4.14137998 L6.0080348,8.25280435 C4.76056476,8.99327291 3.86814003,10.1886773 3.49535248,11.6190202 C3.12256493,13.0493631 3.31392052,14.5432836 4.03413524,15.8256565 C4.75434997,17.1081324 5.91731882,18.0254231 7.30873157,18.4086408 C8.6998436,18.7919616 10.1533041,18.595149 11.4008743,17.8548866 L15.0295136,15.7011803 C15.8206973,15.2316123 16.8321053,15.5105503 17.2888928,16.3236644 C17.7455801,17.1368814 17.4745348,18.1766905 16.6834514,18.6462585 L13.0548121,20.7996556 C11.7142204,21.5953554 10.2261776,22.0018609 8.71858822,22.0018609 C7.96278878,22.0018609 7.20217788,21.899745 6.45259323,21.6932464 C4.20774859,21.0748841 2.33148148,19.5949774 1.16941477,17.5258696 C0.00734806413,15.4568648 -0.301286749,13.0465809 0.300245409,10.7389281 C0.901677328,8.43127521 2.3414051,6.50251226 4.35409702,5.30803529 L11.2814901,1.19650787 C15.4360816,-1.26931632 20.767976,0.199152568 23.1668875,4.47039697 Z" id="path-1"></path>
    </defs>
    <g id="Elements-/-Logo" stroke="none" stroke-width="1" fill="none" fill-rule="evenodd">
        <g id="Logo" transform="translate(0.000000, 1.000000)">
            <path d="M47.24,14.264 C48.2160049,14.5360014 48.9719973,15.0319964 49.508,15.752 C50.0440027,16.4720036 50.312,17.3519948 50.312,18.392 C50.312,19.8320072 49.7960052,20.9599959 48.764,21.776 C47.7319948,22.5920041 46.312009,23 44.504,23 L36.824,23 L36.824,6.08 L44.264,6.08 C46.0240088,6.08 47.403995,6.46799612 48.404,7.244 C49.404005,8.02000388 49.904,9.10399304 49.904,10.496 C49.904,11.3920045 49.6680024,12.1679967 49.196,12.824 C48.7239976,13.4800033 48.0720042,13.9599985 47.24,14.264 Z M39.848,13.208 L43.76,13.208 C45.8880106,13.208 46.952,12.4160079 46.952,10.832 C46.952,10.031996 46.6880026,9.44000192 46.16,9.056 C45.6319974,8.67199808 44.8320054,8.48 43.76,8.48 L39.848,8.48 L39.848,13.208 Z M44.168,20.6 C45.2880056,20.6 46.1039974,20.400002 46.616,20 C47.1280026,19.599998 47.384,18.9760042 47.384,18.128 C47.384,17.2799958 47.1240026,16.6480021 46.604,16.232 C46.0839974,15.8159979 45.2720055,15.608 44.168,15.608 L39.848,15.608 L39.848,20.6 L44.168,20.6 Z M63.048,17.672 L55.056,17.672 C55.1520005,18.7600054 55.4799972,19.5679974 56.04,20.096 C56.6000028,20.6240026 57.3999948,20.888 58.44,20.888 C59.7360065,20.888 60.9199946,20.4720042 61.992,19.64 L62.856,21.704 C62.3119973,22.1520022 61.6280041,22.5119986 60.804,22.784 C59.9799959,23.0560014 59.1520042,23.192 58.32,23.192 C56.3999904,23.192 54.8840056,22.6480054 53.772,21.56 C52.6599944,20.4719946 52.104,18.9840094 52.104,17.096 C52.104,15.895994 52.3439976,14.8320046 52.824,13.904 C53.3040024,12.976 53.9799956,12.2560026 54.852,11.744 C55.7240044,11.2319974 56.7119945,10.976 57.816,10.976 C59.4320081,10.976 60.7079953,11.4959948 61.644,12.536 C62.5800047,13.5760052 63.048,15.0079909 63.048,16.832 L63.048,17.672 Z M57.888,13.088 C57.087996,13.088 56.4440024,13.3439974 55.956,13.856 C55.4679976,14.3680026 55.1680006,15.1039952 55.056,16.064 L60.48,16.064 C60.4479998,15.088 60.2080022,14.3480025 59.76,13.844 C59.3119978,13.3399975 58.688004,13.088 57.888,13.088 Z M65.56,6.08 L76.648,6.08 L76.648,8.552 L68.608,8.552 L68.608,13.16 L76.168,13.16 L76.168,15.632 L68.608,15.632 L68.608,23 L65.56,23 L65.56,6.08 Z M83.792,23.192 C82.591994,23.192 81.5400045,22.9440025 80.636,22.448 C79.7319955,21.9519975 79.0320025,21.2400046 78.536,20.312 C78.0399975,19.3839954 77.792,18.3040062 77.792,17.072 C77.792,15.8399938 78.0399975,14.7640046 78.536,13.844 C79.0320025,12.9239954 79.7319955,12.2160025 80.636,11.72 C81.5400045,11.2239975 82.591994,10.976 83.792,10.976 C84.992006,10.976 86.0439955,11.2239975 86.948,11.72 C87.8520045,12.2160025 88.5479976,12.9239954 89.036,13.844 C89.5240024,14.7640046 89.768,15.8399938 89.768,17.072 C89.768,18.3040062 89.5240024,19.3839954 89.036,20.312 C88.5479976,21.2400046 87.8520045,21.9519975 86.948,22.448 C86.0439955,22.9440025 84.992006,23.192 83.792,23.192 Z M83.768,20.864 C84.7440049,20.864 85.4879974,20.5440032 86,19.904 C86.5120026,19.2639968 86.768,18.3200062 86.768,17.072 C86.768,15.8399938 86.5120026,14.9000032 86,14.252 C85.4879974,13.6039968 84.7520048,13.28 83.792,13.28 C82.8319952,13.28 82.0920026,13.6039968 81.572,14.252 C81.0519974,14.9000032 80.792,15.8399938 80.792,17.072 C80.792,18.3200062 81.0479974,19.2639968 81.56,19.904 C82.0720026,20.5440032 82.8079952,20.864 83.768,20.864 Z M97.392,23.192 C96.1599938,23.192 95.0920045,22.9440025 94.188,22.448 C93.2839955,21.9519975 92.5920024,21.2480046 92.112,20.336 C91.6319976,19.4239954 91.392,18.3600061 91.392,17.144 C91.392,15.9279939 91.6439975,14.8520047 92.148,13.916 C92.6520025,12.9799953 93.3679953,12.2560026 94.296,11.744 C95.2240046,11.2319974 96.2959939,10.976 97.512,10.976 C98.3440041,10.976 99.155996,11.1079987 99.948,11.372 C100.740004,11.6360013 101.375998,11.9919978 101.856,12.44 L100.992,14.552 C100.495998,14.151998 99.9720027,13.848001 99.42,13.64 C98.8679972,13.431999 98.3200027,13.328 97.776,13.328 C96.7359948,13.328 95.9280029,13.6519968 95.352,14.3 C94.7759971,14.9480032 94.488,15.8799939 94.488,17.096 C94.488,18.296006 94.7759971,19.2199968 95.352,19.868 C95.9280029,20.5160032 96.7359948,20.84 97.776,20.84 C98.3200027,20.84 98.8679972,20.736001 99.42,20.528 C99.9720027,20.319999 100.495998,20.016002 100.992,19.616 L101.856,21.704 C101.343997,22.1680023 100.688004,22.5319987 99.888,22.796 C99.087996,23.0600013 98.2560043,23.192 97.392,23.192 Z M114.328,11.264 L114.328,23 L111.4,23 L111.4,21.2 C111.031998,21.8400032 110.536003,22.3319983 109.912,22.676 C109.287997,23.0200017 108.584004,23.192 107.8,23.192 C104.919986,23.192 103.48,21.5760162 103.48,18.344 L103.48,11.264 L106.48,11.264 L106.48,18.368 C106.48,19.2000042 106.647998,19.815998 106.984,20.216 C107.320002,20.616002 107.847996,20.816 108.568,20.816 C109.400004,20.816 110.067997,20.5400028 110.572,19.988 C111.076003,19.4359972 111.328,18.7040046 111.328,17.792 L111.328,11.264 L114.328,11.264 Z M121.568,23.192 C120.527995,23.192 119.572004,23.0640013 118.7,22.808 C117.827996,22.5519987 117.088003,22.1840024 116.48,21.704 L117.32,19.616 C118.568006,20.5280046 119.999992,20.984 121.616,20.984 C122.304003,20.984 122.827998,20.8720011 123.188,20.648 C123.548002,20.4239989 123.728,20.1040021 123.728,19.688 C123.728,19.3359982 123.604001,19.064001 123.356,18.872 C123.107999,18.679999 122.664003,18.5040008 122.024,18.344 L120.104,17.912 C119.015995,17.6719988 118.208003,17.2800027 117.68,16.736 C117.151997,16.1919973 116.888,15.4880043 116.888,14.624 C116.888,13.9039964 117.091998,13.2680028 117.5,12.716 C117.908002,12.1639972 118.475996,11.7360015 119.204,11.432 C119.932004,11.1279985 120.775995,10.976 121.736,10.976 C122.568004,10.976 123.371996,11.1039987 124.148,11.36 C124.924004,11.6160013 125.607997,11.976 126.2,12.44 L125.36,14.48 C124.143994,13.5999956 122.928006,13.16 121.712,13.16 C121.055997,13.16 120.544002,13.2799988 120.176,13.52 C119.807998,13.7600012 119.624,14.0959978 119.624,14.528 C119.624,14.8480016 119.739999,15.111999 119.972,15.32 C120.204001,15.528001 120.575997,15.6879994 121.088,15.8 L123.08,16.256 C124.248006,16.5120013 125.103997,16.9159972 125.648,17.468 C126.192003,18.0200028 126.464,18.7439955 126.464,19.64 C126.464,20.7280054 126.024004,21.5919968 125.144,22.232 C124.263996,22.8720032 123.072008,23.192 121.568,23.192 Z M138.984,17.672 L130.992,17.672 C131.088,18.7600054 131.415997,19.5679974 131.976,20.096 C132.536003,20.6240026 133.335995,20.888 134.376,20.888 C135.672006,20.888 136.855995,20.4720042 137.928,19.64 L138.792,21.704 C138.247997,22.1520022 137.564004,22.5119986 136.74,22.784 C135.915996,23.0560014 135.088004,23.192 134.256,23.192 C132.33599,23.192 130.820006,22.6480054 129.708,21.56 C128.595994,20.4719946 128.04,18.9840094 128.04,17.096 C128.04,15.895994 128.279998,14.8320046 128.76,13.904 C129.240002,12.976 129.915996,12.2560026 130.788,11.744 C131.660004,11.2319974 132.647994,10.976 133.752,10.976 C135.368008,10.976 136.643995,11.4959948 137.58,12.536 C138.516005,13.5760052 138.984,15.0079909 138.984,16.832 L138.984,17.672 Z M133.824,13.088 C133.023996,13.088 132.380002,13.3439974 131.892,13.856 C131.403998,14.3680026 131.104001,15.1039952 130.992,16.064 L136.416,16.064 C136.384,15.088 136.144002,14.3480025 135.696,13.844 C135.247998,13.3399975 134.624004,13.088 133.824,13.088 Z M152.56,6.08 L152.56,23 L149.584,23 L149.584,21.104 C149.231998,21.7600033 148.724003,22.2719982 148.06,22.64 C147.395997,23.0080018 146.640004,23.192 145.792,23.192 C144.783995,23.192 143.884004,22.9360026 143.092,22.424 C142.299996,21.9119974 141.684002,21.1880047 141.244,20.252 C140.803998,19.3159953 140.584,18.2400061 140.584,17.024 C140.584,15.8079939 140.803998,14.7440046 141.244,13.832 C141.684002,12.9199954 142.295996,12.2160025 143.08,11.72 C143.864004,11.2239975 144.767995,10.976 145.792,10.976 C146.640004,10.976 147.391997,11.1519982 148.048,11.504 C148.704003,11.8560018 149.207998,12.3519968 149.56,12.992 L149.56,6.08 L152.56,6.08 Z M146.584,20.864 C147.544005,20.864 148.283997,20.5360033 148.804,19.88 C149.324003,19.2239967 149.584,18.2880061 149.584,17.072 C149.584,15.8559939 149.324003,14.9240032 148.804,14.276 C148.283997,13.6279968 147.552005,13.304 146.608,13.304 C145.647995,13.304 144.904003,13.6239968 144.376,14.264 C143.847997,14.9040032 143.584,15.823994 143.584,17.024 C143.584,18.2400061 143.847997,19.1839966 144.376,19.856 C144.904003,20.5280034 145.639995,20.864 146.584,20.864 Z" id="BeFocused" fill="#000000" fill-rule="nonzero"></path>
            <mask id="mask-2" fill="white">
                <use xlink:href="#path-1"></use>
            </mask>
            <use id="Glyph" fill="#2566F2" xlink:href="#path-1"></use>
        </g>
    </g>
</svg>