<?xml version="1.0" encoding="UTF-8"?>
<svg width="528px" height="680px" viewBox="0 0 528 680" version="1.1" xmlns="http://www.w3.org/2000/svg" xmlns:xlink="http://www.w3.org/1999/xlink">
    <!-- Generator: Sketch 57 (83077) - https://sketch.com -->
    <title>Image</title>
    <desc>Created with Sketch.</desc>
    <defs>
        <rect id="path-1" x="0" y="0" width="528" height="680"></rect>
    </defs>
    <g id="Rails-Girls-App" stroke="none" stroke-width="1" fill="none" fill-rule="evenodd">
        <g id="Home/1440" transform="translate(-864.000000, -128.000000)">
            <g id="Image" transform="translate(864.000000, 128.000000)">
                <mask id="mask-2" fill="white">
                    <use xlink:href="#path-1"></use>
                </mask>
                <use id="Mask" fill="#D8D8D8" opacity="0" xlink:href="#path-1"></use>
                <g id="Group-3" mask="url(#mask-2)">
                    <polyline id="Fill-61" fill="#D5D5D5" points="112.347093 437.871318 100.82573 424.871727 248.926639 293.606227 248.926639 46.9346818 266.297548 46.9346818 266.297548 301.422364 112.347093 437.871318"></polyline>
                    <path d="M253.045275,9.13440909 C253.006639,4.12868182 257.032548,0.0448181818 262.039821,0.00695454545 C262.124821,0.00618181818 262.217548,0.00540909091 262.302548,0.00772727273 C262.41073,0.00463636364 262.518912,0.000772727273 262.634821,0 L262.634821,0.00309090909 C267.642093,-0.0224090909 271.714366,4.01354545 271.745375,9.02004545 C271.768457,14.0265455 267.734821,18.105 262.727548,18.1305 C262.627093,18.1312727 262.534366,18.1281818 262.441639,18.1258636 C262.348912,18.1289545 262.263912,18.1297273 262.171184,18.1337114 L262.15573,18.1337114 C257.156184,18.1590909 253.076184,14.1347273 253.045275,9.13440909 Z M436.908003,89.2005455 L436.908003,89.2005455 C433.34573,85.6776818 433.314821,79.9401818 436.838457,76.381 C440.354366,72.8225909 446.09573,72.7924545 449.658003,76.3091364 C453.212548,79.832 453.243457,85.5695 449.719821,89.1286818 C447.96573,90.9075 445.647548,91.8046364 443.321639,91.8171143 C441.003457,91.8285909 438.685275,90.9585 436.908003,89.2005455 Z M76.0830025,91.4762273 C72.5130025,87.9595455 72.4743662,82.2259091 75.9902753,78.6574545 C79.5061844,75.0920909 85.247548,75.0534545 88.8098207,78.5670455 C92.3720934,82.0806364 92.4184571,87.8204545 88.902548,91.3827273 C87.1407298,93.1715909 84.8148207,94.0718182 82.4966389,94.0835238 C80.1784571,94.095 77.8602753,93.228 76.0830025,91.4762273 Z M509.861085,262.594364 C509.838003,257.588636 513.871639,253.509409 518.871184,253.480667 C523.878457,253.452227 527.958457,257.485864 527.989543,262.491591 C528.020275,267.498091 523.986639,271.575773 518.979366,271.605287 C513.972093,271.633727 509.892093,267.600091 509.861085,262.594364 Z M0.000275259209,265.806591 C-0.0383611044,260.803955 3.99527526,256.716227 8.99482071,256.684545 C14.0020934,256.646682 18.0898207,260.677227 18.1207298,265.682955 C18.1593662,270.689455 14.1257298,274.774091 9.11845708,274.808984 L9.10300253,274.808984 C4.11118435,274.834364 0.0311843501,270.806909 0.000275259209,265.806591 Z M438.971184,449.629909 C435.408912,446.113227 435.378003,440.373409 438.893912,436.814227 C442.409821,433.251955 448.151184,433.2195 451.713457,436.735409 C455.268003,440.255182 455.306639,445.992682 451.79073,449.554955 C450.028912,451.337636 447.71073,452.234773 445.384821,452.246493 C443.066639,452.258727 440.748457,451.387864 438.971184,449.629909 Z M78.5480025,451.898636 L78.5480025,451.898636 C74.9857298,448.381182 74.9470934,442.644455 78.4630025,439.082182 C81.9789116,435.519909 87.712548,435.481273 91.282548,438.997182 C94.8448207,442.513864 94.8757298,448.251364 91.3598207,451.816727 C89.5980025,453.599409 87.2798207,454.499636 84.9616389,454.511357 C82.6434571,454.523591 80.3252753,453.652727 78.5480025,451.898636 Z M256.530099,518.990682 C256.499366,513.984182 260.533003,509.902636 265.540275,509.870955 C270.547548,509.839273 274.627548,513.872136 274.658634,518.875545 C274.689366,523.882045 270.65573,527.963591 265.656184,527.998364 C260.648912,528.030045 256.561184,523.996409 256.530099,518.990682 L256.530099,518.990682 Z" id="Fill-62" fill="#29CB98"></path>
                    <path d="M355.988003,32.7319545 L355.99573,32.7319545 L355.856639,32.6755455 L355.694366,32.6129545 C352.588003,31.3835455 351.073457,27.8722727 352.302093,24.769 C353.53073,21.6657273 357.046639,20.1465455 360.145275,21.3813636 L360.292093,21.4377727 L360.462093,21.5034545 C363.56073,22.7351818 365.075275,26.2534091 363.838912,29.3535909 C362.903912,31.7088636 360.647548,33.1492273 358.259821,33.16167 C357.502548,33.1654545 356.729821,33.0279091 355.988003,32.7319545 Z M157.304366,32.3811364 C155.975275,29.3149545 157.389366,25.7611818 160.457093,24.4367273 C163.517093,23.1130455 167.079366,24.5240455 168.40073,27.5871364 C169.722093,30.6494545 168.308003,34.2070909 165.248003,35.53 C164.475275,35.8638182 163.671639,36.0253182 162.883457,36.029265 C160.534366,36.0415455 158.293457,34.6753636 157.304366,32.3811364 Z M492.559821,165.476455 C491.238457,162.410273 492.652548,158.858818 495.712548,157.538227 C498.780275,156.216864 502.334821,157.627864 503.656184,160.694045 C504.977548,163.756364 503.563457,167.314 500.49573,168.634591 C499.73073,168.965318 498.927093,169.126818 498.138912,169.130721 C495.789821,169.139182 493.548912,167.773773 492.559821,165.476455 Z M24.7893662,175.614636 C21.6830025,174.382909 20.1684571,170.870864 21.4048207,167.767591 C22.6334571,164.668182 26.1416389,163.150545 29.2480025,164.379955 C32.3466389,165.610909 33.8611844,169.122955 32.6402753,172.226227 C31.697548,174.587682 29.4411844,176.028818 27.0457298,176.041261 C26.2961844,176.045045 25.5311844,175.906727 24.7893662,175.614636 Z M498.672093,363.771409 C495.573457,362.539682 494.058912,359.027636 495.287548,355.927455 C496.523912,352.824182 500.039821,351.311182 503.138457,352.542136 C506.237093,353.774636 507.751639,357.286682 506.523003,360.386091 C505.588003,362.747545 503.331639,364.188682 500.936184,364.201124 C500.186639,364.204909 499.413912,364.066591 498.672093,363.771409 Z M24.3952753,367.462727 L24.3952753,367.462727 C23.0739116,364.399636 24.4802753,360.842773 27.5480025,359.518318 C30.6157298,358.194636 34.1702753,359.607955 35.4916389,362.671045 C36.8130025,365.737227 35.4066389,369.291 32.3389116,370.612364 C31.5661844,370.945409 30.762548,371.106909 29.9743662,371.110846 C27.6252753,371.122364 25.3843662,369.753864 24.3952753,367.462727 Z M359.434366,500.474591 C358.113003,497.4115 359.527093,493.856955 362.587093,492.535591 C365.654821,491.212682 369.209366,492.622909 370.53073,495.688318 C371.852093,498.7545 370.438003,502.309045 367.378003,503.629636 C366.605275,503.962682 365.809366,504.121864 365.021184,504.125038 C362.664366,504.137318 360.423457,502.768818 359.434366,500.474591 Z M167.682093,506.562136 C164.57573,505.330409 163.068912,501.815273 164.297548,498.714318 C165.526184,495.611818 169.042093,494.095727 172.14073,495.326682 C175.247093,496.558409 176.761639,500.073545 175.533003,503.173727 C174.590275,505.535182 172.333912,506.976318 169.938457,506.988761 C169.188912,506.992545 168.423912,506.854227 167.682093,506.562136 L167.682093,506.562136 Z" id="Fill-63" fill="#CFCFCF"></path>
                    <path d="M374.309366,431.724273 L145.419821,432.904478 C134.926184,432.957545 126.379821,424.497727 126.32573,414.007182 L125.073654,170.853864 C125.019821,160.363318 133.481184,151.816182 143.967093,151.761318 L372.864366,150.582651 C383.350275,150.528818 391.896639,158.988636 391.95073,169.479182 L393.210533,412.6325 C393.264366,423.122273 384.803003,431.670955 374.309366,431.724273" id="Fill-64" fill="#D5D5D5"></path>
                    <polyline id="Fill-65" fill="#B9B8B8" points="298.257548 165.423909 218.728457 165.833455 218.63573 147.875273 298.164821 147.465727 298.257548 165.423909"></polyline>
                    <polyline id="Fill-66" fill="#FFDB4A" points="200.399366 294.672591 147.243457 294.946909 146.973003 241.792545 200.128912 241.518227 200.399366 294.672591"></polyline>
                    <polyline id="Fill-67" fill="#FFFFFF" points="200.10573 237.440545 146.949821 237.714091 146.679366 184.5605 199.827548 184.286182 200.10573 237.440545"></polyline>
                    <polyline id="Fill-68" fill="#FFFFFF" points="257.295275 237.146136 204.147093 237.419682 203.868912 184.265318 257.024821 183.991 257.295275 237.146136"></polyline>
                    <polyline id="Fill-69" fill="#FFFFFF" points="314.786184 293.831091 261.630275 294.104636 261.359821 240.950273 314.51573 240.676727 314.786184 293.831091"></polyline>
                    <polyline id="Fill-70" fill="#FFDB4A" points="371.983457 293.536682 318.827548 293.811 318.549366 240.655864 371.705275 240.382318 371.983457 293.536682"></polyline>
                    <polyline id="Fill-71" fill="#FFFFFF" points="371.689821 236.595182 318.533912 236.868727 318.25573 183.714364 371.411639 183.440818 371.689821 236.595182"></polyline>
                    <polyline id="Fill-72" fill="#FFFFFF" points="257.890275 351.319682 204.734366 351.594 204.456184 298.439636 257.612093 298.165318 257.890275 351.319682"></polyline>
                    <polyline id="Fill-73" fill="#FFDB4A" points="258.183912 408.516955 205.028003 408.7905 204.749821 355.636136 257.90573 355.362591 258.183912 408.516955"></polyline>
                    <polyline id="Fill-74" fill="#FFFFFF" points="315.373457 408.221773 262.217548 408.496091 261.947093 355.341727 315.103003 355.068182 315.373457 408.221773"></polyline>
                    <polyline id="Fill-75" fill="#FFFFFF" points="200.693003 351.742364 147.537093 352.015909 147.266639 298.861545 200.422548 298.588 200.693003 351.742364"></polyline>
                    <path d="M372.292641,354.773 C372.292641,354.773 372.385275,379.377409 366.721184,400.263455 L354.473457,408.020091 L311.131184,408.243409 C319.252548,386.287909 319.136639,355.046545 319.136639,355.046545 L372.292641,354.773" id="Fill-76" fill="#FFDB4A"></path>
                    <polyline id="Fill-77" fill="#DEBA35" points="354.473457 408.020091 354.427093 400.148318 366.721184 400.084955 354.473457 408.020091"></polyline>
                    <path d="M314.801732,297.870909 C314.801732,297.870909 314.894366,322.475318 309.238003,343.361364 L296.982548,351.118773 L253.640275,351.342091 C261.761639,329.386591 261.653457,298.145227 261.653457,298.145227 L314.801732,297.870909" id="Fill-78" fill="#2566F2"></path>
                    <polyline id="Fill-79" fill="#1C4AAF" points="296.982548 351.118773 296.943912 343.247 309.230275 343.183636 296.982548 351.118773"></polyline>
                    <path d="M314.214459,183.735227 C314.214459,183.735227 314.307093,208.339636 308.643003,229.225682 L296.395275,236.983091 L253.053003,237.206409 C261.174366,215.250909 261.058457,184.008773 261.058457,184.008773 L314.214459,183.735227" id="Fill-80" fill="#FFDB4A"></path>
                    <polyline id="Fill-81" fill="#DEBA35" points="296.395275 236.983091 296.348912 229.110545 308.643003 229.047182 296.395275 236.983091"></polyline>
                    <path d="M200.70855,355.657 C200.70855,355.657 200.801184,380.261409 195.137093,401.147455 L182.889366,408.904864 L139.547093,409.128182 C147.668457,387.172682 147.560275,355.930545 147.560275,355.930545 L200.70855,355.657" id="Fill-82" fill="#FFFFFF"></path>
                    <polyline id="Fill-83" fill="#C9C9C9" points="182.889366 408.904864 182.85073 401.032318 195.137093 400.968955 182.889366 408.904864"></polyline>
                    <path d="M257.318529,241.223818 C257.318529,241.223818 257.403457,265.828227 251.747093,286.714273 L239.491639,294.471682 L196.149366,294.695 C204.27073,272.7395 204.162548,241.497364 204.162548,241.497364 L257.318529,241.223818" id="Fill-84" fill="#2566F2"></path>
                    <polyline id="Fill-85" fill="#799123" points="239.491639 294.471682 239.453003 286.599909 251.747093 286.536545 239.491639 294.471682"></polyline>
                    <path d="M371.999005,297.5765 C371.999005,297.5765 372.091639,322.180136 366.427548,343.066955 L354.172093,350.823591 L310.837548,351.047682 C318.958912,329.091409 318.843003,297.850045 318.843003,297.850045 L371.999005,297.5765" id="Fill-86" fill="#FFFFFF"></path>
                    <polyline id="Fill-87" fill="#C9C9C9" points="354.172093 350.823591 354.133457 342.951818 366.427548 342.888455 354.172093 350.823591"></polyline>
                    <path d="M287.763912,208.664955 C287.253912,208.664955 286.751639,208.443182 286.403912,208.015864 C285.808912,207.267864 285.924821,206.174455 286.674366,205.574045 L416.77073,101.027909 C417.520275,100.426727 418.609821,100.545727 419.212548,101.293727 C419.815275,102.041727 419.699366,103.135136 418.949821,103.736318 L288.84573,208.281682 C288.528912,208.539773 288.142548,208.664955 287.763912,208.664955" id="Fill-88" fill="#FFCC00"></path>
                    <path d="M230.868003,268.140227 C230.172548,268.140227 229.508003,267.713682 229.245275,267.020545 C228.905275,266.124182 229.353457,265.121182 230.249821,264.778864 L467.616184,174.361273 C468.512548,174.022045 469.517093,174.468682 469.857093,175.365818 C470.197093,176.262182 469.748912,177.265955 468.852548,177.608273 L231.486184,268.025864 C231.285275,268.103136 231.076639,268.140227 230.868003,268.140227" id="Fill-89" fill="#29CB98"></path>
                    <path d="M146.973003,243.529636 C146.293003,243.529636 145.643912,243.127045 145.36573,242.457864 L89.9070934,108.759818 C89.5361844,107.874273 89.9611844,106.857364 90.8420934,106.490318 C91.7307298,106.121727 92.7430025,106.542864 93.1139116,107.429182 L148.572548,241.126455 C148.943457,242.012773 148.526184,243.029682 147.637548,243.396727 C147.421184,243.487136 147.197093,243.529636 146.973003,243.529636" id="Fill-90" fill="#FFCC00"></path>
                    <path d="M345.262548,268.833364 C344.319821,268.833364 343.539366,268.069136 343.531411,267.117136 C343.516184,266.157409 344.288912,265.370773 345.247093,265.359182 L482.112548,263.707091 C483.117093,263.707864 483.858912,264.462818 483.866867,265.422545 C483.882093,266.3815 483.109366,267.168909 482.151184,267.1805 L345.28573,268.833364 L345.262548,268.833364" id="Fill-91" fill="#FFCC00"></path>
                    <path d="M466.49573,355.915864 C466.395275,355.915864 466.302548,355.907364 466.194366,355.888818 L283.908003,323.884 C282.965275,323.717864 282.331639,322.817636 282.501639,321.873364 C282.663912,320.927545 283.560275,320.293909 284.51073,320.462364 L466.797093,352.467955 C467.739821,352.634091 468.373457,353.534318 468.211184,354.478591 C468.056639,355.322409 467.330275,355.915864 466.49573,355.915864" id="Fill-92" fill="#29CB98"></path>
                    <path d="M415.256184,428.728409 C414.939366,428.728409 414.622548,428.644955 414.336639,428.468 L340.796184,382.986045 C339.984821,382.481455 339.729821,381.411227 340.232093,380.595227 C340.742093,379.779227 341.808457,379.526545 342.627548,380.031136 L416.168003,425.513091 C416.987093,426.017682 417.234366,427.088682 416.732093,427.904682 C416.399821,428.435545 415.83573,428.728409 415.256184,428.728409" id="Fill-93" fill="#FFCC00"></path>
                    <path d="M176.259366,294.154864 C176.259366,294.154864 180.617548,286.437636 173.531639,265.851409 C166.685275,245.942091 143.348912,247.870045 136.000275,260.6865 C128.643912,273.502182 131.193912,281.425727 142.189821,295.796136 C153.18573,310.166545 171.754366,300.7725 176.259366,294.154864" id="Fill-94" fill="#EEA886"></path>
                    <path d="M123.86073,649.235409 C123.86073,649.235409 122.748003,657.709909 122.608912,658.983364 C122.469821,660.256045 109.758457,658.300273 109.758457,658.300273 L108.676639,648.222364 C108.676639,648.222364 122.268912,648.0485 123.86073,649.235409" id="Fill-95" fill="#EEA886"></path>
                    <path d="M122.740275,657.905409 C122.740275,657.905409 126.789366,662.987636 130.699366,665.192227 C134.601639,667.396818 140.729366,668.246818 143.039821,670.536409 C144.708912,672.190818 149.136639,679.324636 132.963457,679.262818 C116.798003,679.201 109.001184,680.398727 107.254821,677.663273 C105.508457,674.927045 109.658003,657.399273 109.658003,657.399273 C109.658003,657.399273 113.622093,658.495 122.740275,657.905409" id="Fill-96" fill="#494F80"></path>
                    <path d="M211.83573,648.781818 C211.83573,648.781818 210.73073,657.257091 210.591639,658.529773 C210.452548,659.802455 197.733457,657.846682 197.733457,657.846682 L196.651639,647.769545 C196.651639,647.769545 210.243912,647.594909 211.83573,648.781818" id="Fill-97" fill="#EEA886"></path>
                    <path d="M210.723003,657.451818 C210.723003,657.451818 214.772093,662.534818 218.674366,664.738636 C222.584366,666.943227 236.918457,668.696545 239.236639,670.986909 C240.90573,672.640545 243.703003,679.316909 220.946184,678.806909 C204.78073,678.451455 196.983912,679.942818 195.237548,677.207364 C193.491184,674.474227 197.64073,656.945682 197.64073,656.945682 C197.64073,656.945682 202.663457,657.814227 210.723003,657.451818" id="Fill-98" fill="#494F80"></path>
                    <path d="M127.052093,438.333409 C127.052093,438.333409 120.638457,458.612864 121.588912,476.054864 C122.539366,493.497636 118.405275,512.611045 116.774821,530.845864 C114.951184,551.174 107.316639,599.315682 107.084821,610.185636 C106.86073,621.056364 108.545275,655.754136 108.545275,655.754136 L124.324366,656.053955 C124.324366,656.053955 137.143912,571.892364 140.536184,563.294227 C143.92073,554.696864 160.627093,493.436591 161.168003,486.569364 C161.701184,479.702136 127.052093,438.333409 127.052093,438.333409" id="Fill-99" fill="#F7C500"></path>
                    <path d="M192.463457,435.8885 C192.463457,435.8885 202.323457,489.368955 203.521184,500.041091 C204.718912,510.714 205.692548,551.707955 206.295275,558.378909 C206.90573,565.049864 210.56073,645.694 213.667093,655.594182 L196.072093,655.684591 C196.072093,655.684591 177.704366,597.140455 177.557548,569.396455 C177.418457,541.653227 165.286639,509.143818 157.466639,490.878864 C149.654366,472.613136 131.974366,472.271591 127.052093,438.333409 C127.052093,438.333409 185.980275,425.149136 192.463457,435.8885" id="Fill-100" fill="#F7C500"></path>
                    <path d="M169.899821,299.631955 C169.899821,299.631955 167.944821,305.418909 169.953912,309.530591 C171.963003,313.642273 144.60073,311.310182 144.60073,311.310182 C144.60073,311.310182 145.798457,302.784682 142.189821,295.796136 C138.581184,288.806818 169.899821,299.631955 169.899821,299.631955" id="Fill-101" fill="#EEA886"></path>
                    <path d="M125.808003,442.750318 C125.808003,442.750318 135.691184,452.801182 193.367548,440.829318 L192.463457,435.8885 L126.83573,438.697364 L125.808003,442.750318" id="Fill-102" fill="#123071"></path>
                    <path d="M174.09573,310.847318 C174.09573,310.847318 184.203003,311.826364 187.093003,312.360318 C189.975275,312.895818 209.378457,308.772545 213.36573,308.339818 C217.345275,307.907091 234.27573,296.178636 234.816639,294.802409 C235.357548,293.425409 245.016639,268.594591 245.542093,263.233409 C246.059821,257.872227 255.062093,260.591455 254.312548,264.288955 C252.906184,271.203318 251.136639,287.98 250.147548,292.845864 C249.081184,298.098091 246.206639,309.998864 244.568457,311.469364 C242.922548,312.939864 227.692093,324.655955 212.739821,329.679455 C197.787548,334.702955 186.552093,342.043864 186.552093,342.043864 L112.741184,342.423273 C112.741184,342.423273 83.8180025,301.533636 83.1689116,295.354136 C82.5198207,289.174636 102.981639,247.973591 107.077093,242.800182 C111.172548,237.627545 117.168912,244.430636 117.168912,244.430636 C117.168912,244.430636 105.006184,280.733364 103.383457,285.893636 C101.76073,291.054682 117.887548,313.610591 122.284366,313.656955 C126.681184,313.702545 137.97073,312.201909 142.978003,311.970091 C147.993003,311.7375 153.27073,309.512045 153.27073,309.512045 L174.09573,310.847318" id="Fill-103" fill="#EEA886"></path>
                    <path d="M206.048003,338.095227 C206.048003,338.095227 197.04573,344.148773 196.273003,354.457727 C195.500275,364.766682 192.28573,381.065818 190.67073,386.637955 C189.048003,392.210864 192.347548,432.588955 192.772548,435.472 C193.197548,438.355045 135.706639,445.507409 126.83573,438.697364 C126.83573,438.697364 124.169821,400.995227 123.088003,390.283682 C121.998457,379.572136 116.921639,353.630136 115.252548,350.135091 C113.583457,346.640045 93.4539116,318.701318 92.6039116,315.009227 C92.6039116,315.009227 102.86573,298.468227 110.283912,298.224045 C110.283912,298.224045 122.137548,311.971636 125.98573,312.569727 C129.826184,313.168591 153.35573,308.730818 153.35573,308.695273 C153.35573,308.695273 155.944366,312.181818 169.59073,307.989773 C169.59073,307.989773 185.872093,309.742318 188.522548,310.066864 C191.729366,310.458636 213.991639,307.139 213.991639,307.139 C213.991639,307.139 223.009366,322.187864 221.487093,329.817 L206.048003,338.095227" id="Fill-104" fill="#2566F2"></path>
                    <path d="M245.039821,266.456455 C245.039821,266.456455 247.010275,256.894727 244.568457,254.164682 C243.177548,252.6115 239.831639,248.494409 239.522548,247.888591 C239.213457,247.283545 235.63573,245.252045 235.628003,244.2645 C235.628003,243.277727 239.113003,242.045227 242.165275,244.838636 C245.217548,247.632045 247.118457,248.229364 248.331639,247.9195 C249.544821,247.609636 251.237093,237.503136 251.376184,234.997182 C251.515275,232.491227 252.450275,225.881318 254.018912,226.327955 C255.587548,226.776909 255.52573,229.6615 255.52573,229.6615 C255.52573,229.6615 257.318457,224.641091 258.539366,225.621682 C259.760275,226.602273 259.621184,229.0325 259.621184,229.0325 C259.621184,229.0325 261.885275,226.212045 262.503457,228.259 C263.121639,230.305182 262.518912,232.130364 262.518912,232.130364 C262.518912,232.130364 264.868003,230.828318 265.038003,234.015818 C265.208003,237.203318 264.419821,246.546364 262.766184,249.895364 C261.112548,253.244364 254.907548,262.013273 254.173457,265.430273 C253.447093,268.847273 245.039821,266.456455 245.039821,266.456455" id="Fill-105" fill="#EEA886"></path>
                    <path d="M115.183003,250.3505 C115.183003,250.3505 121.99073,238.772727 124.324366,237.729545 C126.658003,236.687136 129.949821,236.085955 132.824366,234.010409 C135.698912,231.934091 139.50073,230.197 139.292093,229.511591 C139.083457,228.825409 135.683457,229.1175 132.051639,230.716273 C128.419821,232.315818 126.820275,231.560091 126.472548,230.737909 C126.124821,229.914955 128.373457,224.082409 129.47073,222.703091 C130.560275,221.323773 138.349366,213.405636 137.043457,212.244227 C135.729821,211.082818 130.668457,215.437909 129.849366,216.335045 C129.849366,216.335045 133.859821,207.794864 132.27573,207.390727 C130.691639,206.986591 127.755275,210.024955 127.755275,210.024955 C127.755275,210.024955 128.056639,202.741227 120.29073,214.597955 C120.29073,214.597955 121.921184,210.673273 119.518003,211.990773 C117.122548,213.309045 114.827548,220.671591 114.08573,224.385318 C113.351639,228.099045 109.982548,239.934909 107.077093,242.800182 C104.163912,245.665455 115.183003,250.3505 115.183003,250.3505" id="Fill-106" fill="#EEA886"></path>
                    <path d="M142.189821,295.796136 C142.189821,295.796136 145.806184,296.096727 153.487093,293.400682 C161.168003,290.704636 161.678003,277.246818 163.347093,278.831682 C166.762548,282.066318 169.953912,279.806091 171.228912,277.875818 C171.228912,277.875818 167.442548,272.948136 169.173457,270.557318 C170.904366,268.1665 173.724821,266.413955 173.724821,266.413955 C173.724821,266.413955 168.176639,240.357591 143.611639,252.368091 C114.827548,266.441 142.189821,295.796136 142.189821,295.796136" id="Fill-107" fill="#191A1A"></path>
                    <path d="M169.953912,309.530591 L169.065275,305.764318 C169.065275,305.764318 153.348003,305.526318 144.778457,306.813682 L143.897548,311.325636 C143.897548,311.325636 154.901184,316.249455 169.953912,309.530591" id="Fill-108" fill="#2566F2"></path>
                    <path d="M165.904821,275.521318 C164.459821,273.155227 159.174366,271.582727 158.587093,278.307 C158.131184,283.519045 168.076184,289.158409 168.14573,284.303364 C168.207548,279.448318 166.863003,277.094591 165.904821,275.521318" id="Fill-109" fill="#EEA886"></path>
                    <path d="M245.403003,264.286636 C245.403003,264.286636 251.074821,264.395591 253.841184,266.866773 C253.841184,266.866773 254.026639,268.443136 253.393003,269.691091 C253.393003,269.691091 248.47073,267.423136 244.692093,267.012818 C244.692093,267.012818 244.746184,264.950409 245.403003,264.286636" id="Fill-110" fill="#FFCC00"></path>
                    <path d="M252.094821,265.665182 C252.628003,266.903091 252.056184,268.3365 250.812093,268.866591 C249.57573,269.397455 248.146184,268.824091 247.613003,267.585409 C247.079821,266.3475 247.659366,264.913318 248.89573,264.384 C250.132093,263.853136 251.569366,264.4265 252.094821,265.665182" id="Fill-111" fill="#191A1A"></path>
                    <path d="M343.454366,479.103273 C343.044821,479.103273 342.635275,478.960318 342.303003,478.668227 L230.303912,379.913682 C229.577548,379.279273 229.508003,378.181227 230.149366,377.461818 C230.783003,376.743182 231.880275,376.672864 232.598912,377.308045 L344.60573,476.062591 C345.324366,476.697 345.393912,477.795045 344.760275,478.514455 C344.412548,478.904682 343.933457,479.103273 343.454366,479.103273" id="Fill-112" fill="#FFCC00"></path>
                </g>
            </g>
        </g>
    </g>
</svg>