<?xml version="1.0" encoding="UTF-8"?>
<svg width="204px" height="280px" viewBox="0 0 204 280" version="1.1" xmlns="http://www.w3.org/2000/svg" xmlns:xlink="http://www.w3.org/1999/xlink">
    <!-- Generator: Sketch 57 (83077) - https://sketch.com -->
    <title>Image</title>
    <desc>Created with Sketch.</desc>
    <g id="Rails-Girls-App" stroke="none" stroke-width="1" fill="none" fill-rule="evenodd">
        <g id="Goals-List/Empty/1440" transform="translate(-618.000000, -330.000000)">
            <g id="Image" transform="translate(618.000000, 330.000000)">
                <path d="M194.641449,89.8315194 C192.951724,69.3279014 186.35896,3.18955122 114.187036,11.70301 C43.8223466,20.0057596 57.4941267,74.3849202 42.6067171,92.7652386 C27.7193076,111.145557 -30.6268574,173.393893 33.0154002,220.426599 C114.693548,280.790709 199.807875,152.618784 194.641449,89.8315194" id="Fill-428" fill="#EDF8FF"></path>
                <path d="M105.154908,192.852069 C105.316992,192.187525 105.231898,191.162344 103.157224,190.003444 C101.082549,188.840492 96.459105,185.497511 94.8666303,185.408365 C93.2782077,185.319218 90.859105,185.910825 90.2148213,185.894616 C89.5745898,185.88246 88.3346477,190.161476 88.3346477,190.161476 L105.154908,192.852069" id="Fill-445" fill="#EEA886"></path>
                <polyline id="Fill-446" fill="#B53737" points="49.766775 150.665673 63.6330558 177.895774 92.0747345 185.201708 89.3193076 192.402286 58.7502772 190.234414 43.7494089 165.257279 49.766775 150.665673"></polyline>
                <path d="M134.026109,261.186657 C134.026109,261.186657 140.387904,263.861042 143.228425,264.793024 C146.072998,265.720955 156.478787,264.675514 157.633635,265.510246 C158.788483,266.340926 158.837108,269.489406 157.163591,270.03644 C155.490075,270.587525 143.062289,273.448307 138.726543,273.039045 C134.39485,272.629783 126.768801,275.356845 124.945357,275.004312 C123.125965,274.65178 122.967933,265.121244 123.352882,262.925007 C123.737831,260.72877 134.026109,261.186657 134.026109,261.186657" id="Fill-447" fill="#202338"></path>
                <path d="M132.563302,257.36958 L134.026109,261.186657 C134.026109,261.186657 126.359539,263.735427 123.352882,262.925007 L122.347962,259.030941 L132.563302,257.36958" id="Fill-448" fill="#292C47"></path>
                <path d="M116.877629,264.586367 C116.877629,264.586367 122.878787,267.994182 125.58964,269.254385 C128.300494,270.514587 138.75896,270.709088 139.808454,271.673488 C140.853895,272.633835 140.529727,275.766107 138.803533,276.114587 C137.077339,276.463068 124.398323,277.828625 120.14362,276.908799 C115.888917,275.993024 107.991377,277.796208 106.224662,277.228914 C104.461999,276.661621 105.430451,267.17971 106.070682,265.044255 C106.714966,262.912851 116.877629,264.586367 116.877629,264.586367" id="Fill-449" fill="#292C47"></path>
                <path d="M115.982115,260.615311 L116.877629,264.586367 C116.877629,264.586367 108.963881,266.207207 106.070682,265.044255 L105.535805,261.061042 L115.982115,260.615311" id="Fill-450" fill="#3D416B"></path>
                <path d="M55.8449226,189.16466 C55.8449226,189.16466 83.200639,189.387525 86.5557765,189.829204 C90.1945608,190.307352 103.943331,190.453227 105.66142,192.880434 C123.008454,217.423994 134.816268,257.896353 134.816268,257.896353 L121.10802,260.412706 C121.10802,260.412706 107.845501,236.4567 102.294127,224.016758 C97.3059935,212.845123 93.0391339,209.972185 82.5685116,210.219363 C72.0938372,210.466541 38.6032439,208.314877 19.294995,206.082171 L55.8449226,189.16466" id="Fill-451" fill="#202338"></path>
                <path d="M61.7609863,133.205181 C61.7609863,133.205181 64.4434754,144.976527 63.7870355,151.463936 C63.1305956,157.955398 52.773432,174.224573 52.279076,177.839045 C51.7887721,181.453516 54.6211889,188.921534 54.6211889,188.921534 L18.7682222,205.518929 C18.7682222,205.518929 18.8290037,195.137453 20.2999154,182.815022 C21.7748792,170.496642 26.4145319,160.747294 28.0394233,153.785789 C33.582694,130.024283 53.8715507,126.721823 53.8715507,126.721823 L61.7609863,133.205181" id="Fill-452" fill="#CFBEB6"></path>
                <path d="M54.499626,188.597366 C54.499626,188.597366 82.6738662,188.824283 86.0290037,189.265962 C89.667788,189.74411 104.222926,189.975079 105.616847,192.604891 C115.560697,211.317482 117.793403,261.263647 117.793403,261.263647 L105.000928,262.706194 C105.000928,262.706194 98.7201759,237.356266 96.746804,225.281013 C94.7774841,213.209812 92.3138083,211.455253 81.8391339,211.698379 C71.3685116,211.945557 30.3531715,222.870014 18.7682222,205.518929 L54.499626,188.597366" id="Fill-453" fill="#292C47"></path>
                <path d="M88.8735767,114.281881 C88.8735767,114.281881 88.5372526,121.498668 86.5719849,121.470304 C84.9470934,121.450043 84.3473828,128.371027 84.1650384,129.452938 C83.982694,130.530796 81.0773394,129.65149 80.2020862,129.890564 C79.330885,130.129638 73.5809574,136.102431 71.3766158,135.061042 C69.1722743,134.019653 61.7650384,125.137453 60.8046911,120.955687 C59.8483958,116.76987 64.9499877,103.535716 69.6868908,99.5079304 C74.4237938,95.4760925 89.4044016,101.639334 88.8735767,114.281881" id="Fill-454" fill="#EEA886"></path>
                <path d="M67.7661961,129.298958 C67.7661961,129.298958 67.429872,129.878408 66.9233597,130.782026 C66.5465145,131.44657 66.0845753,132.285354 65.5942714,133.205181 C64.2651831,135.685065 62.7618546,138.716035 62.4255304,140.263936 C61.7934031,143.157134 55.2127953,126.936585 55.2127953,126.936585 C55.2127953,126.936585 59.9740109,118.645991 63.7586708,108.645412 C67.5433307,98.6448334 67.7661961,129.298958 67.7661961,129.298958" id="Fill-455" fill="#EEA886"></path>
                <path d="M88.7520138,115.813574 C88.7520138,115.813574 95.2880485,111.729059 92.4596838,104.086802 C89.6313191,96.4404919 74.9708271,98.0694354 73.6619993,97.680434 C72.3531715,97.2914325 65.7523032,93.8998262 62.1216231,107.113719 C58.494995,120.327612 59.6579472,118.459595 59.6579472,118.459595 C59.6579472,118.459595 64.0504219,113.856411 66.3803785,114.610101 C68.9048358,115.424573 72.867788,117.122402 72.867788,117.122402 C72.867788,117.122402 74.0104798,110.86191 77.4547634,111.94382 C80.894995,113.025731 86.3855883,112.859595 88.7520138,115.813574" id="Fill-456" fill="#754836"></path>
                <path d="M71.4211889,112.276092 C71.5792207,111.417048 72.5274118,107.891722 68.8845753,108.106483 C65.2376867,108.321244 66.0237938,116.514587 66.4290037,116.859016 C66.8342135,117.203444 70.1123611,119.509088 71.4211889,112.276092" id="Fill-457" fill="#EEA886"></path>
                <path d="M66.9233597,130.782026 C66.5465145,131.44657 66.0845753,132.285354 65.5942714,133.205181 C63.0617099,128.670883 61.6029545,123.775948 61.1815362,122.260463 C62.0892063,124.865962 66.9233597,130.782026 66.9233597,130.782026" id="Fill-458" fill="#A77860"></path>
                <path d="M69.3627229,131.786946 C69.3627229,131.786946 69.3140977,129.384052 69.2127953,128.64657 C69.1155449,127.909088 70.6756028,128.407496 70.9633018,129.262489 C71.2550529,130.121534 69.3627229,131.786946 69.3627229,131.786946" id="Fill-459" fill="#C98462"></path>
                <path d="M80.8585261,130.470014 C80.8585261,130.470014 81.1057041,131.52356 80.9881932,132.034124 C80.9881932,132.034124 80.7045464,132.949899 80.5424624,133.614443 C80.4897851,133.825152 80.4533163,134.011548 80.4371079,134.133111 C80.3844306,134.643676 80.4168474,135.778263 79.9386998,136.965528 C79.4646042,138.148741 77.0576578,143.307062 77.0576578,143.307062 L73.6619993,142.302142 L70.9957186,141.402576 C70.9957186,141.402576 68.8926795,133.257858 69.2087432,132.10301 C69.24116,131.989551 69.2735767,131.880145 69.3181498,131.778842 C69.6787866,130.826599 70.3473828,130.267409 70.5945608,129.789262 C70.683707,129.615022 71.71294,127.933401 72.2964422,127.848307 C73.1028097,127.730796 73.7106245,127.977974 74.0834176,128.399392 C74.0834176,128.399392 75.6758922,128.237308 76.5754581,128.837019 C76.5754581,128.837019 78.0423177,128.642518 78.9459356,129.704168 C78.9459356,129.704168 80.4533163,129.671751 80.8585261,130.470014" id="Fill-460" fill="#DE9D7D"></path>
                <path d="M55.942173,125.6156 C55.942173,125.6156 60.0874697,135.283907 63.6330558,138.558003 L61.9595391,144.311982 L53.8715507,126.721823 L55.942173,125.6156" id="Fill-461" fill="#EDDAD3"></path>
                <path d="M54.499626,188.597366 C54.499626,188.597366 53.9850095,187.2156 53.5919559,185.858147 C53.2029545,184.500694 42.5702482,190.100694 42.5702482,190.100694 L45.1271223,193.058726 L54.499626,188.597366" id="Fill-462" fill="#323657"></path>
                <path d="M60.6912323,155.876671 C59.6782077,157.951346 58.7097562,160.058437 57.793982,162.181736 C55.7719849,166.845702 53.9809574,171.590709 52.3965869,176.230362 C51.8292931,177.883618 51.290364,179.52877 50.7797996,181.149609 C44.6732873,200.474066 42.2460804,216.860752 42.2460804,216.860752 C42.2460804,216.860752 19.4165579,210.786657 16.0087432,207.775948 C16.0087432,207.775948 21.5722743,126.924428 53.8715507,126.721823 C54.0701035,127.025731 66.0116375,144.984631 60.6912323,155.876671" id="Fill-463" fill="#D74444"></path>
                <path d="M52.3965869,176.230362 C51.8292931,177.883618 51.290364,179.52877 50.7797996,181.149609 C45.7551976,173.199392 36.8892063,154.081592 36.7514349,153.785789 L52.3965869,176.230362" id="Fill-464" fill="#631E1E"></path>
                <path d="M69.8165579,140.028914 L78.4758922,142.905904 L70.4851542,184.990998 C69.5977446,188.982315 64.5650384,190.291143 61.8420283,187.239913 C54.3821151,178.87233 42.5580919,164.925007 37.3876144,155.074356 C29.5427519,140.130217 42.6350818,134.927323 45.7795102,138.691722 C48.9198864,142.456121 62.7942714,167.842518 62.7942714,167.842518 L69.8165579,140.028914" id="Fill-465" fill="#D74444"></path>
                <path d="M4.16445953,119.703589 L17.5769053,159.04136 C17.6822598,159.341215 17.7430413,159.653227 17.7633018,159.965239 L20.9806679,211.694327 L77.0617099,212.942373 L93.4078749,272.43123 C93.9022309,274.234414 93.5861672,276.163213 92.5042569,277.698958 C91.7910876,278.703878 90.7740109,279.59534 89.3557765,279.76958 C85.7980341,280.207207 13.7962974,279.76958 13.7962974,279.76958 L13.7962974,276.79534 C13.7962974,275.312272 15.0240833,274.112851 16.535516,274.112851 L83.8489747,274.112851 C84.9592497,274.112851 86.0249516,273.626599 86.7057041,272.767554 C87.1068618,272.265094 87.3905087,271.641071 87.2811021,270.927901 C86.9852989,269.031519 72.6125058,220.560318 72.6125058,220.560318 L18.3792207,219.599971 C15.9114928,219.555398 13.9057041,217.634703 13.8044016,215.219653 L11.4460804,159.564081 C11.429872,159.207496 11.3731426,158.859016 11.2758922,158.518639 L0.31091394,120.907062 C0.31091394,120.907062 -0.83582991,118.289406 1.27531336,118.034124 C3.38645663,117.778842 3.92943782,119.018784 4.16445953,119.703589" id="Fill-466" fill="#5E5E5B"></path>
                <path d="M77.3656247,214.03644 C77.3656247,214.03644 77.4061383,209.741215 71.5184393,209.44136 C64.7595391,209.096932 20.7983235,208.793024 20.7983235,208.793024 L21.0900746,213.359739 L77.3656247,214.03644" id="Fill-467" fill="#D6985E"></path>
                <path d="M106.443475,177.162344 L106.443475,179.204602 L203.742462,179.204602 L203.742462,177.162344 C203.742462,175.26191 202.461999,173.718061 200.885733,173.718061 L109.300205,173.718061 C107.719886,173.718061 106.443475,175.26191 106.443475,177.162344" id="Fill-468" fill="#D6985E"></path>
                <path d="M168.82553,278.736295 L198.227556,278.736295 L198.227556,274.035861 L171.714677,274.035861 C170.11815,274.035861 168.82553,275.32848 168.82553,276.920955 L168.82553,278.736295" id="Fill-469" fill="#807066"></path>
                <polygon id="Fill-470" fill="#807066" points="192.473577 278.736295 196.359539 278.736295 196.359539 179.204602 192.473577 179.204602"></polygon>
                <polygon id="Fill-471" fill="#807066" points="184.669235 278.736295 188.555198 278.736295 188.555198 179.204602 184.669235 179.204602"></polygon>
                <polygon id="Fill-472" fill="#6E6760" points="156.268077 167.161765 159.380089 167.161765 159.380089 98.2031547 156.268077 98.2031547"></polygon>
                <path d="M162.698758,173.718061 L179.810769,173.718061 L179.810769,172.680723 L162.698758,172.680723 C161.807296,172.680723 161.167064,172.470014 160.794271,172.052648 C160.340436,171.546136 160.413374,170.869435 160.413374,170.861331 L160.417426,170.828914 L160.417426,148.688249 L159.380089,148.688249 L159.380089,170.776237 C159.359829,170.986946 159.319308,171.947294 160.008164,172.729349 C160.583562,173.385789 161.491232,173.718061 162.698758,173.718061" id="Fill-473" fill="#918880"></path>
                <path d="M139.853027,171.902721 L157.443186,171.902721 L157.443186,173.718061 L138.183562,173.718061 L138.183562,173.568133 C138.183562,172.648307 138.929148,171.902721 139.853027,171.902721" id="Fill-474" fill="#6E6760"></path>
                <path d="M147.726254,179.204602 L203.742462,179.204602 L203.742462,177.162344 C203.742462,175.26191 202.42553,173.718061 200.804691,173.718061 L156.494995,173.718061 L147.726254,179.204602" id="Fill-475" fill="#BC8551"></path>
                <path d="M198.077629,153.878987 C198.077629,153.878987 192.704546,154.685354 184.867788,158.846859 C177.03103,163.008365 191.006717,160.10301 198.077629,153.878987" id="Fill-478" fill="#757D28"></path>
                <path d="M183.806138,159.450622 C183.806138,159.450622 187.704257,152.023126 193.766196,148.627467 C193.766196,148.627467 192.007585,153.785789 185.613374,159.320955 C179.223215,164.860174 183.806138,159.450622 183.806138,159.450622" id="Fill-479" fill="#5C9E33"></path>
                <path d="M180.694127,154.369291 C180.694127,154.369291 176.666341,149.450043 175.057658,147.213285 C173.448975,144.976527 178.437108,157.675803 178.850422,159.017048 C179.263736,160.362344 180.961565,161.525297 180.694127,154.369291" id="Fill-480" fill="#4D8B33"></path>
                <path d="M184.539568,161.971027 C186.326543,159.288538 187.578642,147.213285 187.578642,147.213285 C184.450422,149.806628 181.496442,161.472619 181.496442,161.472619 C181.496442,161.472619 182.748541,164.653516 184.539568,161.971027" id="Fill-481" fill="#B1C265"></path>
                <path d="M184.134358,160.755398 C184.669235,159.612706 183.956066,144.810391 183.526543,146.151635 C183.101073,147.496932 180.66171,153.040202 180.66171,153.040202 C180.297021,156.403444 183.595429,161.894037 184.134358,160.755398" id="Fill-482" fill="#92A05B"></path>
                <path d="M180.013374,157.473198 C179.065183,155.751056 169.692679,146.500116 169.692679,146.500116 C169.781826,149.360897 175.596587,156.160318 175.596587,156.160318 C175.596587,156.160318 180.961565,159.199392 180.013374,157.473198" id="Fill-483" fill="#C7CA7F"></path>
                <path d="M184.539568,161.776527 C173.716413,157.789262 163.521334,159.859884 163.521334,159.859884 C165.012506,161.910246 179.17459,161.776527 179.17459,161.776527 L184.539568,161.776527" id="Fill-484" fill="#5C9E33"></path>
                <path d="M182.266341,162.125007 C176.767643,156.136006 163.800928,153.250912 163.800928,153.250912 C167.634214,157.165239 173.132911,160.593314 173.132911,160.593314 C173.132911,160.593314 187.76909,168.118061 182.266341,162.125007" id="Fill-485" fill="#518330"></path>
                <path d="M183.376616,161.472619 C180.155198,155.516035 167.8976,149.628336 167.8976,149.628336 C167.8976,151.508509 177.829293,160.244833 177.829293,160.244833 C177.829293,160.244833 186.598034,167.429204 183.376616,161.472619" id="Fill-486" fill="#6C9F44"></path>
                <path d="M183.28747,162.060174 C185.698468,161.618495 194.645501,152.849754 194.645501,152.849754 C192.319597,153.295485 183.28747,159.017048 183.28747,159.017048 C183.28747,159.017048 180.876471,162.501852 183.28747,162.060174" id="Fill-487" fill="#4A8A33"></path>
                <path d="M187.578642,162.100694 C190.621768,162.22631 200.371117,156.160318 200.371117,156.160318 C197.453606,156.160318 190.759539,157.927033 187.481392,158.842807 C186.249554,159.187236 185.204112,160.009812 184.571985,161.124139 C182.82553,164.211838 184.92857,161.987236 187.578642,162.100694" id="Fill-488" fill="#689C2F"></path>
                <path d="M198.847528,159.462778 C197.939857,159.393893 192.088627,159.653227 189.576326,159.770738 C188.57951,159.815311 187.623215,160.184052 186.869525,160.832388 C185.787614,161.768422 186.103678,162.473488 187.578642,162.769291 C189.547962,163.170448 200.01048,159.555977 198.847528,159.462778" id="Fill-489" fill="#478B33"></path>
                <path d="M183.032187,161.051201 C183.251001,160.131375 183.283418,159.183184 183.161855,158.247149 C182.732332,155.0622 181.253316,145.199392 179.081392,143.700116 C179.081392,143.700116 178.100784,156.484486 180.155198,160.783763 C181.694995,164.005181 182.618873,162.813864 183.032187,161.051201" id="Fill-490" fill="#61A23E"></path>
                <path d="M183.020031,162.801708 C184.251869,161.630651 189.260263,150.256411 189.260263,150.256411 C184.567933,152.999681 182.481102,158.563213 182.481102,158.563213 C182.481102,158.563213 181.784141,163.972764 183.020031,162.801708" id="Fill-491" fill="#5C9B3B"></path>
                <polyline id="Fill-492" fill="#31535F" points="171.467499 163.664804 173.0154 173.718061 191.266051 173.718061 192.813953 163.664804 171.467499 163.664804"></polyline>
                <path d="M192.813953,163.664804 L171.467499,163.664804 L173.0154,173.718061 L176.852737,173.718061 C176.852737,173.718061 180.134937,167.279276 192.36417,166.574211 L192.813953,163.664804" id="Fill-493" fill="#27434C"></path>
                <polygon id="Fill-494" fill="#31535F" points="170.62061 164.860174 193.660842 164.860174 193.660842 161.500984 170.62061 161.500984"></polygon>
                <path d="M67.7661961,16.8653833 C67.7661961,16.8653833 90.4052699,2.28998537 130.504836,5.32500708 C130.504836,5.32500708 114.738121,-2.872388 95.0003495,1.07435585 C75.2666303,5.0251518 67.7661961,16.8653833 67.7661961,16.8653833" id="Fill-497" fill="#EDF8FF"></path>
            </g>
        </g>
    </g>
</svg>