<?xml version="1.0" encoding="UTF-8"?>
<svg width="146px" height="200px" viewBox="0 0 146 200" version="1.1" xmlns="http://www.w3.org/2000/svg" xmlns:xlink="http://www.w3.org/1999/xlink">
    <!-- Generator: Sketch 57 (83077) - https://sketch.com -->
    <title>Image</title>
    <desc>Created with Sketch.</desc>
    <g id="Rails-Girls-App" stroke="none" stroke-width="1" fill="none" fill-rule="evenodd">
        <g id="Goals-List/Empty/375" transform="translate(-115.000000, -238.000000)">
            <g id="Image" transform="translate(115.000000, 238.000000)">
                <path d="M139.029607,64.165371 C137.82266,49.5199296 133.113543,2.27825087 81.5621682,8.35929284 C31.3016762,14.2898283 41.0672333,53.1320859 30.4333694,66.2608847 C19.7995054,79.3896836 -21.8763267,123.852781 23.5824287,157.447571 C81.9239627,200.564792 142.719911,109.013417 139.029607,64.165371" id="Fill-428" fill="#EDF8FF"></path>
                <path d="M75.1106487,137.751478 C75.2264229,137.276804 75.1656414,136.544532 73.6837312,135.716746 C72.2018209,134.886066 68.8993607,132.498222 67.7618788,132.434546 C66.6272912,132.37087 64.8993607,132.793446 64.4391581,132.781869 C63.9818498,132.773186 63.0961769,135.829626 63.0961769,135.829626 L75.1106487,137.751478" id="Fill-445" fill="#EEA886"></path>
                <polyline id="Fill-446" fill="#B53737" points="35.5476964 107.618338 45.4521827 127.06841 65.7676675 132.286934 63.7995054 137.430205 41.9644837 135.881724 31.2495778 118.040914 35.5476964 107.618338"></polyline>
                <path d="M95.7329352,186.561898 C95.7329352,186.561898 100.277074,188.472173 102.306018,189.137875 C104.337856,189.800682 111.770562,189.053938 112.595453,189.650176 C113.420345,190.243519 113.455077,192.492433 112.259708,192.883171 C111.064339,193.276804 102.187349,195.320219 99.0903882,195.027889 C95.9963216,194.735559 90.5491436,196.683461 89.2466834,196.431652 C87.9471176,196.179843 87.8342377,189.372317 88.1092015,187.803576 C88.3841653,186.234836 95.7329352,186.561898 95.7329352,186.561898" id="Fill-447" fill="#202338"></path>
                <path d="M94.6880727,183.835414 L95.7329352,186.561898 C95.7329352,186.561898 90.2568137,188.382448 88.1092015,187.803576 L87.3914012,185.0221 L94.6880727,183.835414" id="Fill-448" fill="#292C47"></path>
                <path d="M83.4840206,188.990262 C83.4840206,188.990262 87.7705618,191.424416 89.706886,192.324561 C91.6432102,193.224705 99.113543,193.363634 99.8631812,194.052491 C100.609925,194.738453 100.378377,196.975791 99.145381,197.224705 C97.9123853,197.47362 88.8559454,198.449018 85.8168715,197.791999 C82.7777977,197.137875 77.1366979,198.425863 75.8747587,198.020653 C74.6157138,197.615443 75.3074649,190.84265 75.7647731,189.317325 C76.2249757,187.794893 83.4840206,188.990262 83.4840206,188.990262" id="Fill-449" fill="#292C47"></path>
                <path d="M82.8443679,186.153794 L83.4840206,188.990262 C83.4840206,188.990262 77.8313433,190.148005 75.7647731,189.317325 L75.3827181,186.472173 L82.8443679,186.153794" id="Fill-450" fill="#3D416B"></path>
                <path d="M39.8892304,135.117614 C39.8892304,135.117614 59.4290278,135.276804 61.8255546,135.592288 C64.4246863,135.933823 74.2452362,136.038019 75.4724432,137.771739 C87.8631812,155.302853 96.2973346,184.211681 96.2973346,184.211681 L86.5057283,186.009076 C86.5057283,186.009076 77.0325011,168.897643 73.0672333,160.01197 C69.5042811,152.032231 66.4565242,149.980132 58.9775083,150.156688 C51.495598,150.333244 27.5737456,148.796341 13.7821393,147.20155 L39.8892304,135.117614" id="Fill-451" fill="#202338"></path>
                <path d="M44.1149902,95.1465577 C44.1149902,95.1465577 46.0310539,103.554662 45.5621682,108.188526 C45.0932825,112.825284 37.6953086,124.446124 37.3421972,127.027889 C36.9919801,129.609655 39.0151349,134.943953 39.0151349,134.943953 L13.405873,146.799235 C13.405873,146.799235 13.4492883,139.383895 14.4999396,130.582158 C15.5534851,121.783316 18.8675228,114.819495 20.0281595,109.846992 C23.9876385,92.8744882 38.4796791,90.5155881 38.4796791,90.5155881 L44.1149902,95.1465577" id="Fill-452" fill="#CFBEB6"></path>
                <path d="M38.9283043,134.712404 C38.9283043,134.712404 59.0527616,134.874488 61.4492883,135.189973 C64.04842,135.531507 74.4449468,135.696485 75.4406053,137.574922 C82.5433549,150.941058 84.1381451,186.616891 84.1381451,186.616891 L75.0006632,187.647281 C75.0006632,187.647281 70.5144113,169.54019 69.10486,160.915009 C67.6982029,152.292723 65.9384345,151.039466 58.4565242,151.213128 C50.9775083,151.389684 21.6808368,159.192867 13.405873,146.799235 L38.9283043,134.712404" id="Fill-453" fill="#292C47"></path>
                <path d="M63.4811262,81.6299151 C63.4811262,81.6299151 63.2408947,86.7847632 61.837132,86.7645027 C60.6764953,86.7500309 60.2481306,91.693591 60.1178846,92.466384 C59.9876385,93.2362827 57.9123853,92.6082075 57.2872044,92.7789745 C56.6649179,92.9497415 52.5578267,97.2160222 50.983297,96.4721727 C49.4087673,95.7283232 44.1178846,89.3838949 43.4319222,86.3969195 C42.7488542,83.4070497 46.3928484,73.954083 49.7763506,71.0770931 C53.1598527,68.1972089 63.8602869,72.5995244 63.4811262,81.6299151" id="Fill-454" fill="#EEA886"></path>
                <path d="M48.4044258,92.3563985 C48.4044258,92.3563985 48.1641943,92.7702914 47.8023998,93.4157328 C47.5332247,93.8904072 47.2032681,94.4895389 46.853051,95.1465577 C45.9037022,96.9179035 44.8298961,99.0828818 44.5896646,100.188526 C44.1381451,102.255096 39.4377109,90.6689889 39.4377109,90.6689889 C39.4377109,90.6689889 42.8385792,84.7471365 45.5419077,77.6038659 C48.2452362,70.4605953 48.4044258,92.3563985 48.4044258,92.3563985" id="Fill-455" fill="#EEA886"></path>
                <path d="M63.3942956,82.7239817 C63.3942956,82.7239817 68.0628918,79.8064708 66.0426313,74.3477154 C64.0223708,68.8860656 53.5505908,70.0495967 52.6157138,69.7717386 C51.6808368,69.4938804 46.9659309,67.0713044 44.3725879,76.5097993 C41.7821393,85.9482943 42.6128194,84.6139962 42.6128194,84.6139962 C42.6128194,84.6139962 45.7503014,81.3260077 47.4145561,81.864358 C49.2177399,82.4461235 52.04842,83.6588587 52.04842,83.6588587 C52.04842,83.6588587 52.8646284,79.1870787 55.324831,79.9598717 C57.7821393,80.7326648 61.7039917,80.6139962 63.3942956,82.7239817" id="Fill-456" fill="#754836"></path>
                <path d="M51.0151349,80.1972089 C51.1280148,79.5836054 51.8052941,77.0655157 49.2032681,77.2189166 C46.5983477,77.3723174 47.1598527,83.2247053 47.4492883,83.4707255 C47.7387239,83.7167458 50.0802579,85.3636344 51.0151349,80.1972089" id="Fill-457" fill="#EEA886"></path>
                <path d="M47.8023998,93.4157328 C47.5332247,93.8904072 47.2032681,94.4895389 46.853051,95.1465577 C45.0440785,91.9077733 44.0021103,88.4113912 43.7010973,87.3289021 C44.349433,89.189973 47.8023998,93.4157328 47.8023998,93.4157328" id="Fill-458" fill="#A77860"></path>
                <path d="M49.5448021,94.1335331 C49.5448021,94.1335331 49.5100698,92.41718 49.4377109,91.8904072 C49.3682464,91.3636344 50.4825734,91.7196402 50.6880727,92.3303493 C50.8964663,92.9439528 49.5448021,94.1335331 49.5448021,94.1335331" id="Fill-459" fill="#C98462"></path>
                <path d="M57.7560901,93.1928674 C57.7560901,93.1928674 57.9326458,93.9453999 57.8487095,94.3100888 C57.8487095,94.3100888 57.6461045,94.9642132 57.5303303,95.4388876 C57.4927037,95.5893941 57.4666545,95.7225345 57.455077,95.8093652 C57.4174504,96.1740541 57.4406053,96.9844737 57.0990713,97.83252 C56.7604316,98.677672 55.0411841,102.362187 55.0411841,102.362187 L52.6157138,101.644387 L50.7112276,101.00184 C50.7112276,101.00184 49.2090568,95.1841843 49.4348166,94.3592928 C49.4579714,94.2782509 49.4811262,94.2001033 49.5129642,94.1277444 C49.7705618,93.4475707 50.2481306,93.0481496 50.4246863,92.7066156 C50.4883621,92.5821582 51.2235286,91.3810005 51.6403158,91.320219 C52.2162927,91.2362827 52.6504461,91.4128384 52.9167268,91.7138514 C52.9167268,91.7138514 54.0542087,91.5980772 54.6967558,92.0264419 C54.6967558,92.0264419 55.7445126,91.8875128 56.389954,92.6458341 C56.389954,92.6458341 57.4666545,92.6226792 57.7560901,93.1928674" id="Fill-460" fill="#DE9D7D"></path>
                <path d="M39.958695,89.7254289 C39.958695,89.7254289 42.9196212,96.6313623 45.4521827,98.970002 L44.2568137,103.079987 L38.4796791,90.5155881 L39.958695,89.7254289" id="Fill-461" fill="#EDDAD3"></path>
                <path d="M38.9283043,134.712404 C38.9283043,134.712404 38.560721,133.725429 38.2799685,132.75582 C38.0021103,131.78621 30.4073202,135.78621 30.4073202,135.78621 L32.2336588,137.89909 L38.9283043,134.712404" id="Fill-462" fill="#323657"></path>
                <path d="M43.3508802,111.34048 C42.6272912,112.82239 41.9355401,114.327455 41.2814157,115.844097 C39.837132,119.175501 38.5578267,122.564792 37.4261335,125.87883 C37.0209236,127.059727 36.6359743,128.234836 36.2712854,129.392578 C31.9094909,143.195762 30.1757717,154.900537 30.1757717,154.900537 C30.1757717,154.900537 13.86897,150.561898 11.4348166,148.411391 C11.4348166,148.411391 15.4087673,90.6603059 38.4796791,90.5155881 C38.6215025,90.7326648 47.1511697,103.560451 43.3508802,111.34048" id="Fill-463" fill="#D74444"></path>
                <path d="M37.4261335,125.87883 C37.0209236,127.059727 36.6359743,128.234836 36.2712854,129.392578 C32.682284,123.713851 26.349433,110.05828 26.2510249,109.846992 L37.4261335,125.87883" id="Fill-464" fill="#631E1E"></path>
                <path d="M49.86897,100.020653 L56.0542087,102.075646 L50.3465387,132.136427 C49.7126747,134.987368 46.1178846,135.922245 44.1728773,133.742795 C38.8443679,127.76595 30.3986371,117.803576 26.7054388,110.767397 C21.1019656,100.093012 30.4536299,96.376659 32.6996501,99.0655157 C34.942776,101.754372 44.853051,119.887513 44.853051,119.887513 L49.86897,100.020653" id="Fill-465" fill="#D74444"></path>
                <path d="M2.97461395,85.5025635 L12.5549323,113.600972 C12.6301856,113.815154 12.6736009,114.038019 12.6880727,114.260885 L14.9861914,151.210234 L55.0440785,152.101695 L66.7199106,194.593736 C67.0730221,195.881724 66.8472623,197.259438 66.0744692,198.356398 C65.5650626,199.074199 64.8385792,199.710957 63.8255546,199.835414 C61.28431,200.148005 9.85449817,199.835414 9.85449817,199.835414 L9.85449817,197.710957 C9.85449817,196.651623 10.731488,195.794893 11.8110828,195.794893 L59.8921248,195.794893 C60.6851783,195.794893 61.446394,195.447571 61.9326458,194.833967 C62.219187,194.475067 62.4217919,194.029336 62.3436443,193.51993 C62.1323563,192.165371 51.8660756,157.543084 51.8660756,157.543084 L13.1280148,156.857122 C11.365352,156.825284 9.93264578,155.453359 9.86028688,153.728323 L8.17577169,113.974343 C8.16419427,113.71964 8.12367328,113.470726 8.05420874,113.2276 L0.222081385,86.3621872 C0.222081385,86.3621872 -0.597021364,84.4924332 0.910938115,84.3100888 C2.41889759,84.1277444 2.8067413,85.0134173 2.97461395,85.5025635" id="Fill-466" fill="#5E5E5B"></path>
                <path d="M55.2611605,152.883171 C55.2611605,152.883171 55.2900988,149.815154 51.0845995,149.600972 C46.2568137,149.354951 14.8559454,149.137875 14.8559454,149.137875 L15.064339,152.399814 L55.2611605,152.883171" id="Fill-467" fill="#D6985E"></path>
                <path d="M76.0310539,126.544532 L76.0310539,128.003287 L145.53033,128.003287 L145.53033,126.544532 C145.53033,125.187079 144.615714,124.084329 143.489809,124.084329 L78.0715749,124.084329 C76.942776,124.084329 76.0310539,125.187079 76.0310539,126.544532" id="Fill-468" fill="#D6985E"></path>
                <path d="M120.589665,199.097354 L141.591112,199.097354 L141.591112,195.739901 L122.65334,195.739901 C121.512964,195.739901 120.589665,196.6632 120.589665,197.800682 L120.589665,199.097354" id="Fill-469" fill="#807066"></path>
                <polygon id="Fill-470" fill="#807066" points="137.481126 199.097354 140.256814 199.097354 140.256814 128.003287 137.481126 128.003287"></polygon>
                <polygon id="Fill-471" fill="#807066" points="131.906597 199.097354 134.682284 199.097354 134.682284 128.003287 131.906597 128.003287"></polygon>
                <polygon id="Fill-472" fill="#6E6760" points="111.620055 119.401261 113.842921 119.401261 113.842921 70.1451105 111.620055 70.1451105"></polygon>
                <path d="M116.213398,124.084329 L128.436264,124.084329 L128.436264,123.343374 L116.213398,123.343374 C115.57664,123.343374 115.119332,123.192867 114.853051,122.894749 C114.528883,122.532954 114.580982,122.049597 114.580982,122.043808 L114.583876,122.020653 L114.583876,106.205892 L113.842921,106.205892 L113.842921,121.983027 C113.828449,122.133533 113.799505,122.819495 114.291546,123.378106 C114.702544,123.846992 115.35088,124.084329 116.213398,124.084329" id="Fill-473" fill="#918880"></path>
                <path d="M99.8950192,122.787658 L112.459419,122.787658 L112.459419,124.084329 L98.7025445,124.084329 L98.7025445,123.977238 C98.7025445,123.320219 99.235106,122.787658 99.8950192,122.787658" id="Fill-474" fill="#6E6760"></path>
                <path d="M105.518753,128.003287 L145.53033,128.003287 L145.53033,126.544532 C145.53033,125.187079 144.589665,124.084329 143.431922,124.084329 L111.782139,124.084329 L105.518753,128.003287" id="Fill-475" fill="#BC8551"></path>
                <path d="M141.484021,109.913562 C141.484021,109.913562 137.646105,110.489539 132.04842,113.462042 C126.450736,116.434546 136.433369,114.359293 141.484021,109.913562" id="Fill-478" fill="#757D28"></path>
                <path d="M131.290099,113.893302 C131.290099,113.893302 134.074469,108.587947 138.404426,106.162477 C138.404426,106.162477 137.148275,109.846992 132.580982,113.800682 C128.016582,117.757267 131.290099,113.893302 131.290099,113.893302" id="Fill-479" fill="#5C9E33"></path>
                <path d="M129.067233,110.263779 C129.067233,110.263779 126.190243,106.750031 125.041184,105.152346 C123.892125,103.554662 127.455077,112.625574 127.750301,113.583605 C128.045526,114.544532 129.258261,115.375212 129.067233,110.263779" id="Fill-480" fill="#4D8B33"></path>
                <path d="M131.813977,115.693591 C133.090388,113.777527 133.984744,105.152346 133.984744,105.152346 C131.750301,107.004734 129.640316,115.337585 129.640316,115.337585 C129.640316,115.337585 130.534672,117.609655 131.813977,115.693591" id="Fill-481" fill="#B1C265"></path>
                <path d="M131.524542,114.825284 C131.906597,114.009076 131.39719,103.435993 131.090388,104.394025 C130.786481,105.354951 129.044078,109.31443 129.044078,109.31443 C128.783586,111.716746 131.139592,115.638598 131.524542,114.825284" id="Fill-482" fill="#92A05B"></path>
                <path d="M128.580982,112.480856 C127.903702,111.250754 121.209057,104.64294 121.209057,104.64294 C121.272733,106.686355 125.426133,111.543084 125.426133,111.543084 C125.426133,111.543084 129.258261,113.713851 128.580982,112.480856" id="Fill-483" fill="#C7CA7F"></path>
                <path d="M131.813977,115.554662 C124.083152,112.706616 116.800953,114.185631 116.800953,114.185631 C117.866076,115.650176 127.98185,115.554662 127.98185,115.554662 L131.813977,115.554662" id="Fill-484" fill="#5C9E33"></path>
                <path d="M130.190243,115.803576 C126.262602,111.525718 117.000663,109.464937 117.000663,109.464937 C119.738724,112.260885 123.666365,114.70951 123.666365,114.70951 C123.666365,114.70951 134.120779,120.084329 130.190243,115.803576" id="Fill-485" fill="#518330"></path>
                <path d="M130.983297,115.337585 C128.682284,111.082882 119.926857,106.877383 119.926857,106.877383 C119.926857,108.220364 127.020924,114.460595 127.020924,114.460595 C127.020924,114.460595 133.28431,119.592288 130.983297,115.337585" id="Fill-486" fill="#6C9F44"></path>
                <path d="M130.919621,115.757267 C132.641763,115.441782 139.032501,109.178396 139.032501,109.178396 C137.371141,109.496775 130.919621,113.583605 130.919621,113.583605 C130.919621,113.583605 129.197479,116.072752 130.919621,115.757267" id="Fill-487" fill="#4A8A33"></path>
                <path d="M133.984744,115.78621 C136.158406,115.875935 143.122226,111.543084 143.122226,111.543084 C141.03829,111.543084 136.256814,112.805024 133.91528,113.459148 C133.035395,113.705168 132.288652,114.292723 131.837132,115.088671 C130.589665,117.29417 132.091835,115.705168 133.984744,115.78621" id="Fill-488" fill="#689C2F"></path>
                <path d="M142.033948,113.901985 C141.385612,113.852781 137.206162,114.038019 135.411662,114.121956 C134.69965,114.153794 134.016582,114.41718 133.478232,114.880277 C132.705439,115.548873 132.931199,116.052491 133.984744,116.263779 C135.391401,116.55032 142.864628,113.968555 142.033948,113.901985" id="Fill-489" fill="#478B33"></path>
                <path d="M130.737277,115.036572 C130.893572,114.379553 130.916727,113.702274 130.829896,113.033678 C130.523094,110.758714 129.466654,103.713851 127.91528,102.64294 C127.91528,102.64294 127.214845,111.774633 128.682284,114.845545 C129.782139,117.146558 130.442052,116.295617 130.737277,115.036572" id="Fill-490" fill="#61A23E"></path>
                <path d="M130.728594,116.286934 C131.608478,115.450465 135.185902,107.326008 135.185902,107.326008 C131.834238,109.285487 130.343644,113.259438 130.343644,113.259438 C130.343644,113.259438 129.845815,117.123403 130.728594,116.286934" id="Fill-491" fill="#5C9B3B"></path>
                <polyline id="Fill-492" fill="#31535F" points="122.476785 116.903432 123.582429 124.084329 136.618608 124.084329 137.724252 116.903432 122.476785 116.903432"></polyline>
                <path d="M137.724252,116.903432 L122.476785,116.903432 L123.582429,124.084329 L126.323384,124.084329 C126.323384,124.084329 128.667812,119.485197 137.402979,118.981579 L137.724252,116.903432" id="Fill-493" fill="#27434C"></path>
                <polygon id="Fill-494" fill="#31535F" points="121.871864 117.757267 138.329173 117.757267 138.329173 115.357846 121.871864 115.357846"></polygon>
                <path d="M48.4044258,12.0467024 C48.4044258,12.0467024 64.5751928,1.63570384 93.2177399,3.80357648 C93.2177399,3.80357648 81.9558006,-2.05170572 67.8573925,0.767397034 C53.7618788,3.58939414 48.4044258,12.0467024 48.4044258,12.0467024" id="Fill-497" fill="#EDF8FF"></path>
            </g>
        </g>
    </g>
</svg>